<?xml version="1.0"?>
<svg xmlns="http://www.w3.org/2000/svg" id="Layer_3" enable-background="new 0 0 64 64" height="512px" viewBox="0 0 64 64" width="512px"><g transform="matrix(1 -1.22465e-16 -1.22465e-16 -1 0 64)"><g><path d="m19 35c-8.822 0-16-7.178-16-16s7.178-16 16-16 16 7.178 16 16c0 1.455-.2 2.885-.582 4.269l-3.728-1.574c.202-.881.31-1.784.31-2.695 0-6.617-5.383-12-12-12s-12 5.383-12 12 5.383 12 12 12c.911 0 1.814-.108 2.695-.31l1.574 3.728c-1.384.382-2.814.582-4.269.582zm-2.921-17.611 4.817 11.409c-.624.12-1.255.202-1.896.202-5.514 0-10-4.486-10-10s4.486-10 10-10 10 4.486 10 10c0 .641-.082 1.272-.202 1.896l-11.409-4.817c-.375-.157-.808-.074-1.096.214s-.373.721-.214 1.096zm39.921 43.197-15.293-15.293c-.19-.19-.445-.293-.707-.293-.089 0-.179.012-.267.036-.347.096-.616.372-.703.721l-3.273 13.095-16.878-39.973 39.973 16.877-13.095 3.274c-.35.087-.625.356-.721.703s.002.719.257.974l15.293 15.293z" data-original="#000000" class="active-path" data-old_color="#000000" fill="#293E4B"/></g></g> </svg>
