<?xml version="1.0"?>
<svg xmlns="http://www.w3.org/2000/svg" xmlns:xlink="http://www.w3.org/1999/xlink" version="1.1" id="Layer_1" x="0px" y="0px" viewBox="0 0 497.498 497.498" style="enable-background:new 0 0 497.498 497.498;" xml:space="preserve" width="512px" height="512px" class="hovered-paths"><g transform="matrix(1 -1.22465e-16 -1.22465e-16 -1 5.68434e-14 497.498)"><g>
	<g>
		<path style="fill:#5F7D95" d="M426.404,314.629l-82.62,13.66l66.36,114.95c6.4,11.08,2.6,25.26-8.48,31.66l-30.18,17.42    l-3.59,2.07c-11.08,6.4-25.25,2.6-31.65-8.48l-66.37-114.95l-22.95,27.95l-30.19,36.77c-10.16,12.38-30.23,5.65-30.88-10.35    l-10.8-263.94c-0.75-18.2,19.25-29.75,34.64-20.01l223.19,141.33C446.404,291.279,442.194,312.019,426.404,314.629z" data-original="#B2C9D8" class="" data-old_color="#B2C9D8"/>
		<path style="fill:#293E4B" d="M298.814,335.729L298.814,335.729l-112.49-194.82c-6.83,3.94-11.64,11.38-11.27,20.48l10.8,263.94    c0.65,16,20.72,22.73,30.88,10.35l53.14-64.71l0.003-0.004l66.367,114.944c6.4,11.08,20.57,14.88,31.65,8.48l3.59-2.07    l-74.88-129.69C291.666,354.077,292.547,343.36,298.814,335.729z" data-original="#789EBC" class="" data-old_color="#789EBC"/>
	</g>
	<g>
		<path style="fill:#293E4B" d="M185.227,65.865c-4.143,0-7.5-3.358-7.5-7.5V7.5c0-4.142,3.357-7.5,7.5-7.5s7.5,3.358,7.5,7.5    v50.865C192.727,62.507,189.37,65.865,185.227,65.865z" data-original="#F7E080" class="hovered-path active-path" data-old_color="#F7E080"/>
		<path style="fill:#293E4B" d="M135.475,86.473c-1.919,0-3.839-0.732-5.304-2.197L94.204,48.31c-2.929-2.929-2.929-7.677,0-10.606    c2.93-2.929,7.678-2.929,10.607,0l35.967,35.967c2.929,2.929,2.929,7.677,0,10.606C139.313,85.741,137.393,86.473,135.475,86.473z    " data-original="#F7E080" class="hovered-path active-path" data-old_color="#F7E080"/>
		<path style="fill:#293E4B" d="M114.866,136.226H64.002c-4.143,0-7.5-3.358-7.5-7.5s3.357-7.5,7.5-7.5h50.864    c4.143,0,7.5,3.358,7.5,7.5S119.009,136.226,114.866,136.226z" data-original="#F7E080" class="hovered-path active-path" data-old_color="#F7E080"/>
		<path style="fill:#293E4B" d="M306.453,136.226h-50.864c-4.143,0-7.5-3.358-7.5-7.5s3.357-7.5,7.5-7.5h50.864    c4.143,0,7.5,3.358,7.5,7.5S310.596,136.226,306.453,136.226z" data-original="#F7E080" class="hovered-path active-path" data-old_color="#F7E080"/>
		<path style="fill:#293E4B" d="M99.508,221.945c-1.92,0-3.839-0.732-5.304-2.197c-2.929-2.929-2.929-7.678,0-10.606l35.967-35.967    c2.93-2.929,7.678-2.928,10.607,0c2.929,2.929,2.929,7.678,0,10.606l-35.967,35.967    C103.347,221.213,101.427,221.945,99.508,221.945z" data-original="#F7E080" class="hovered-path active-path" data-old_color="#F7E080"/>
		<path style="fill:#293E4B" d="M234.98,86.473c-1.919,0-3.839-0.732-5.304-2.197c-2.929-2.929-2.929-7.678,0-10.607l35.966-35.967    c2.93-2.929,7.678-2.929,10.607,0c2.929,2.929,2.929,7.678,0,10.607l-35.966,35.967C238.819,85.741,236.899,86.473,234.98,86.473z    " data-original="#F7E080" class="hovered-path active-path" data-old_color="#F7E080"/>
	</g>
</g></g> </svg>
