<?xml version="1.0"?>
<svg xmlns="http://www.w3.org/2000/svg" id="Layer_3" enable-background="new 0 0 64 64" height="512px" viewBox="0 0 64 64" width="512px" class=""><g transform="matrix(6.12323e-17 -1 1 6.12323e-17 -1.06581e-14 64)"><g><path d="m22.279 29.503c-1.036.323-2.137.497-3.279.497-6.075 0-11-4.925-11-11s4.925-11 11-11 11 4.925 11 11c0 1.142-.174 2.243-.497 3.279l5.529 2.334c.616-1.759.968-3.643.968-5.613 0-9.389-7.611-17-17-17s-17 7.611-17 17 7.611 17 17 17c1.97 0 3.854-.352 5.613-.969z" fill="#f4b2b0" data-original="#F4B2B0" class="" style="fill:#CBAA34" data-old_color="#f4b2b0"/><g fill="#b3404a"><path d="m47.956 40.542 14.287-3.572c.417-.104.721-.464.754-.893s-.212-.831-.608-.999l-45-19c-.375-.157-.808-.074-1.096.214s-.373.721-.214 1.096l19 45c.157.373.522.612.921.612.026 0 .052-.001.078-.003.429-.033.789-.337.893-.754l3.572-14.287 14.751 14.751c.391.391 1.023.391 1.414 0l6-6c.391-.391.391-1.023 0-1.414zm8.044 20.044-15.293-15.293c-.19-.19-.445-.293-.707-.293-.089 0-.179.012-.267.036-.347.096-.616.372-.703.721l-3.273 13.095-16.878-39.973 39.973 16.877-13.095 3.274c-.35.087-.625.356-.721.703s.002.719.257.974l15.293 15.293z" data-original="#B3404A" class="active-path" style="fill:#293E4B" data-old_color="#B3404A"/><path d="m37 19c0-9.925-8.075-18-18-18s-18 8.075-18 18 8.075 18 18 18v-2c-8.822 0-16-7.178-16-16s7.178-16 16-16 16 7.178 16 16z" data-original="#B3404A" class="active-path" style="fill:#293E4B" data-old_color="#B3404A"/><path d="m19 9c5.514 0 10 4.486 10 10h2c0-6.617-5.383-12-12-12s-12 5.383-12 12 5.383 12 12 12v-2c-5.514 0-10-4.486-10-10s4.486-10 10-10z" data-original="#B3404A" class="active-path" style="fill:#293E4B" data-old_color="#B3404A"/></g></g></g> </svg>
