<?xml version="1.0"?>
<svg xmlns="http://www.w3.org/2000/svg" xmlns:xlink="http://www.w3.org/1999/xlink" version="1.1" id="Capa_1" x="0px" y="0px" viewBox="0 0 511.997 511.997" style="enable-background:new 0 0 511.997 511.997;" xml:space="preserve" width="512px" height="512px"><g transform="matrix(1 -1.22465e-16 -1.22465e-16 -1 5.68434e-14 511.997)"><g>
	<g>
		<path d="M444.909,365.778L231.576,152.445c-3.051-3.051-7.616-3.968-11.627-2.304c-3.989,1.643-6.592,5.547-6.592,9.856v295.381    c0,4.075,2.325,7.808,5.995,9.579c3.691,1.813,8.043,1.344,11.243-1.173l54.165-42.368l47.275,85.077    c1.963,3.499,5.589,5.504,9.344,5.504c1.6,0,3.221-0.363,4.757-1.131l64-32c2.603-1.301,4.565-3.605,5.419-6.379    c0.875-2.773,0.555-5.781-0.875-8.341l-44.523-80.149h67.2c4.309,0,8.213-2.603,9.856-6.592    C448.877,373.416,447.96,368.829,444.909,365.778z" data-original="#000000" class="active-path" data-old_color="#000000" fill="#293E4B"/>
	</g>
</g><g>
	<g>
		<path d="M373.464,102.781c-15.275-39.915-45.184-71.488-84.224-88.896c-80.512-35.947-175.339,0.32-211.307,80.896    c-17.408,39.019-18.581,82.496-3.328,122.411c15.275,39.915,45.184,71.488,84.224,88.896c1.408,0.64,2.88,0.917,4.331,0.917    c4.075,0,7.979-2.347,9.749-6.315c2.411-5.376,0-11.691-5.397-14.08C97.709,255.442,66.243,173.288,97.411,103.464    C128.6,33.661,210.776,2.258,280.557,33.362c69.803,31.168,101.269,113.323,70.101,183.147c-2.411,5.376,0,11.691,5.397,14.08    c5.376,2.432,11.669-0.021,14.08-5.397C387.544,186.173,388.739,142.696,373.464,102.781z" data-original="#000000" class="active-path" data-old_color="#000000" fill="#293E4B"/>
	</g>
</g><g>
	<g>
		<path d="M314.221,127.058c-8.811-24.085-26.453-43.307-49.707-54.123c-23.232-10.795-49.323-11.925-73.408-3.115    s-43.307,26.453-54.123,49.707c-10.816,23.253-11.925,49.323-3.115,73.408s26.453,43.307,49.707,54.123    c1.451,0.661,2.987,0.981,4.48,0.981c4.011,0,7.872-2.283,9.685-6.165c2.475-5.355,0.171-11.691-5.184-14.187    c-18.069-8.405-31.808-23.339-38.656-42.091c-6.848-18.731-5.973-39.019,2.432-57.088c8.405-18.091,23.339-31.808,42.091-38.656    c18.752-6.827,38.997-5.973,57.088,2.432c18.091,8.405,31.808,23.339,38.656,42.091c6.848,18.731,5.973,39.019-2.432,57.088    c-2.475,5.333-0.171,11.691,5.184,14.187c5.376,2.453,11.691,0.149,14.187-5.184C321.923,177.213,323.032,151.144,314.221,127.058    z" data-original="#000000" class="active-path" data-old_color="#000000" fill="#293E4B"/>
	</g>
</g></g> </svg>
